<svg class="icon" style="width: 1em;height: 1em;vertical-align: middle;fill: currentColor;overflow: hidden;" viewBox="0 0 1024 1024" version="1.1" xmlns="http://www.w3.org/2000/svg" p-id="4786" data-spm-anchor-id="a313x.7781069.1998910419.i4"><path d="M354.40128 0c-87.04 0-157.44 70.55872-157.44 157.59872v275.68128H78.72c-21.6576 0-39.36256 17.69984-39.36256 39.36256v236.31872c0 21.6576 17.69984 39.35744 39.36256 39.35744h118.24128v118.08256c0 87.04 70.4 157.59872 157.44 157.59872h472.63744c87.04 0 157.59872-70.55872 157.59872-157.59872V315.0336c0-41.74848-38.9888-81.93024-107.52-149.27872l-29.11744-29.12256L818.87744 107.52C751.5392 38.9888 711.39328 0 669.59872 0H354.4064z m0 78.72h287.20128c28.35456 7.0912 27.99616 42.1376 27.99616 76.8v120.16128c0 21.6576 17.69984 39.35744 39.36256 39.35744h118.07744c39.38816 0 78.87872-0.0256 78.87872 39.36256v512c0 43.32032-35.55328 78.87872-78.87872 78.87872H354.4064c-43.32544 0-78.72-35.5584-78.72-78.87872v-118.08256h393.91744c21.66272 0 39.36256-17.69472 39.36256-39.35744V472.64256c0-21.66272-17.69984-39.36256-39.36256-39.36256H275.68128V157.59872c0-43.32032 35.39456-78.87872 78.72-78.87872z m189.11744 420.32128c17.92 0 33.92 3.2 48 9.6l-8.63744 20.15744c-14.08-7.04-27.84256-10.55744-41.28256-10.55744-18.56 0-33.28 6.07744-44.16 18.23744s-16.31744 29.76256-16.31744 52.80256c0 23.04 4.79744 40.63744 14.39744 52.79744 10.24 11.52 25.6 17.28 46.08 17.28 9.6 0 19.84-1.28 30.72-3.84v-51.84h-35.51744v-20.15744h57.6v86.4c-17.92 5.76-37.44256 8.63744-58.56256 8.63744-23.68 0-42.55744-7.68-56.63744-23.04s-21.12-37.76-21.12-67.2c0-28.16 7.35744-49.92 22.07744-65.28 15.36-16 36.48-23.99744 63.36-23.99744z m-398.39744 1.92h43.19744c20.48 0 35.84 4.48 46.08 13.44 10.24 8.32 15.36 21.12 15.36 38.4s-5.43744 31.03744-16.31744 41.27744c-10.88 9.6-26.88 14.40256-48 14.40256h-18.24256v68.15744h-22.07744V500.96128z m142.08 0h25.91744l85.44256 144.95744h0.95744c-1.28-21.12-1.92-37.43744-1.92-48.95744v-96h21.12v175.67744H392.8064l-86.4-144.95744h-0.96256c1.28 23.04 1.92 39.68 1.92 49.92v95.03744h-20.15744V500.96128z m-120.00256 19.2v69.12h15.36c16 0 27.20256-2.88256 33.60256-8.64256 7.04-5.76 10.55744-14.72 10.55744-26.88 0-10.88-3.51744-19.2-10.55744-24.96-6.4-5.76-16.32256-8.63744-29.76256-8.63744h-19.2z" p-id="4787"></path></svg>
